<svg width="32" height="32" viewBox="0 0 32 32" fill="none" xmlns="http://www.w3.org/2000/svg">
<path fill-rule="evenodd" clip-rule="evenodd" d="M26 23.5198C22.9099 26.9043 18.6279 29 13.8958 29C10.6362 29 7.59007 28.0056 5 26.2805C6.6293 24.5187 8.76003 23.3663 11.0682 23.0249C11.4435 22.9442 11.8563 23.0652 12.1566 23.3075C13.7329 24.5588 15.6094 25.2046 17.561 25.2046C19.5127 25.2046 21.3891 24.5588 22.9654 23.3075C23.2657 23.0652 23.6785 22.9846 24.0538 23.0249C24.7215 23.1236 25.3724 23.2902 26 23.5198Z" fill="#293148" fill-opacity="0.45"/>
<path d="M17.2738 3C12.3218 3 8.2738 7.04801 8.2738 12C8.2738 16.952 12.3218 21 17.2738 21C22.2258 21 26.2738 16.952 26.2738 12C26.2738 7.04801 22.2258 3 17.2738 3Z" fill="#293148" fill-opacity="0.45"/>
</svg>
